<?xml version="1.0" encoding="UTF-8"?><svg id="b" xmlns="http://www.w3.org/2000/svg" width="116.97" height="116.97" viewBox="0 0 116.97 116.97"><g id="c"><polygon points="58.49 76.79 22.54 112.73 4.24 94.43 40.19 58.49 4.24 22.54 22.54 4.24 58.49 40.19 94.43 4.24 112.73 22.54 76.79 58.49 112.73 94.43 94.43 112.73 58.49 76.79" fill="#f08080"/><path d="M94.43,8.49l14.06,14.06-35.94,35.95,35.94,35.94-14.06,14.06-35.94-35.94-35.95,35.94-14.06-14.06,35.95-35.94L8.49,22.54l14.06-14.06,35.95,35.95L94.43,8.49M94.43,0l-4.24,4.24-31.7,31.7L26.79,4.24,22.54,0l-4.24,4.24-14.06,14.06L0,22.54l4.24,4.24,31.7,31.7-31.7,31.7-4.24,4.24,4.24,4.24,14.06,14.06,4.24,4.24,4.24-4.24,31.71-31.7,31.7,31.7,4.24,4.24,4.24-4.24,14.06-14.06,4.24-4.24-4.24-4.24-31.7-31.7,31.7-31.71,4.24-4.24-4.24-4.24-14.06-14.06-4.24-4.24h0Z" fill="#1a1a1a"/></g></svg>