<?xml version="1.0" encoding="UTF-8"?><svg id="b" xmlns="http://www.w3.org/2000/svg" width="152.54" height="116.98" viewBox="0 0 152.54 116.98"><g id="c"><polygon points="4.24 59.66 21.76 42.14 57.32 77.7 130.77 4.24 148.3 21.76 57.32 112.74 4.24 59.66" fill="#3cb371"/><path d="M130.77,8.49l13.28,13.28L57.32,108.5,8.49,59.66l13.28-13.28,35.56,35.56L130.77,8.49M130.77,0l-4.24,4.24L57.32,73.46l-31.31-31.31-4.24-4.24-4.24,4.24-13.28,13.28-4.24,4.24,4.24,4.24,48.83,48.83,4.24,4.24,4.24-4.24L148.29,26l4.24-4.24-4.24-4.24-13.28-13.28-4.24-4.24h0Z" fill="#1a1a1a"/></g></svg>